<svg width="671" height="659" viewBox="0 0 671 659" fill="none" xmlns="http://www.w3.org/2000/svg">
<path d="M6.59459 5.77027H4.94595V665.23H6.59459V5.77027Z" fill="url(#paint0_linear_7_336)" fill-opacity="0.1"/>
<path d="M38.8257 4.94595H37.177V666.054H38.8257V4.94595Z" fill="url(#paint1_linear_7_336)" fill-opacity="0.1"/>
<path d="M71.8811 4.94595H70.2324V666.054H71.8811V4.94595Z" fill="url(#paint2_linear_7_336)" fill-opacity="0.1"/>
<path d="M104.936 4.94595H103.288V666.054H104.936V4.94595Z" fill="url(#paint3_linear_7_336)" fill-opacity="0.1"/>
<path d="M137.992 4.94595H136.343V666.054H137.992V4.94595Z" fill="url(#paint4_linear_7_336)" fill-opacity="0.1"/>
<path d="M171.047 4.94595H169.399V666.054H171.047V4.94595Z" fill="url(#paint5_linear_7_336)" fill-opacity="0.1"/>
<path d="M204.103 4.94595H202.454V666.054H204.103V4.94595Z" fill="url(#paint6_linear_7_336)" fill-opacity="0.1"/>
<path d="M237.158 4.94595H235.509V666.054H237.158V4.94595Z" fill="url(#paint7_linear_7_336)" fill-opacity="0.1"/>
<path d="M270.214 4.94595H268.565V666.054H270.214V4.94595Z" fill="url(#paint8_linear_7_336)" fill-opacity="0.1"/>
<path d="M303.269 4.94595H301.62V666.054H303.269V4.94595Z" fill="url(#paint9_linear_7_336)" fill-opacity="0.1"/>
<path d="M336.324 4.94595H334.676V666.054H336.324V4.94595Z" fill="url(#paint10_linear_7_336)" fill-opacity="0.1"/>
<path d="M369.38 4.94595H367.731V666.054H369.38V4.94595Z" fill="url(#paint11_linear_7_336)" fill-opacity="0.1"/>
<path d="M402.435 4.94595H400.786V666.054H402.435V4.94595Z" fill="url(#paint12_linear_7_336)" fill-opacity="0.1"/>
<path d="M435.491 4.94595H433.842V666.054H435.491V4.94595Z" fill="url(#paint13_linear_7_336)" fill-opacity="0.1"/>
<path d="M468.546 4.94595H466.897V666.054H468.546V4.94595Z" fill="url(#paint14_linear_7_336)" fill-opacity="0.1"/>
<path d="M501.601 4.94595H499.953V666.054H501.601V4.94595Z" fill="url(#paint15_linear_7_336)" fill-opacity="0.1"/>
<path d="M534.657 4.94595H533.008V666.054H534.657V4.94595Z" fill="url(#paint16_linear_7_336)" fill-opacity="0.1"/>
<path d="M567.712 4.94595H566.064V666.054H567.712V4.94595Z" fill="url(#paint17_linear_7_336)" fill-opacity="0.1"/>
<path d="M600.768 4.94595H599.119V666.054H600.768V4.94595Z" fill="url(#paint18_linear_7_336)" fill-opacity="0.1"/>
<path d="M633.823 4.94595H632.174V666.054H633.823V4.94595Z" fill="url(#paint19_linear_7_336)" fill-opacity="0.1"/>
<path d="M666.054 5.77027H664.405V665.23H666.054V5.77027Z" fill="url(#paint20_linear_7_336)" fill-opacity="0.1"/>
<path d="M665.23 4.94595H5.77027V6.59459H665.23V4.94595Z" fill="url(#paint21_linear_7_336)" fill-opacity="0.1"/>
<path d="M666.054 37.177H4.94595V38.8257H666.054V37.177Z" fill="url(#paint22_linear_7_336)" fill-opacity="0.1"/>
<path d="M666.054 70.2324H4.94595V71.8811H666.054V70.2324Z" fill="url(#paint23_linear_7_336)" fill-opacity="0.1"/>
<path d="M666.054 103.288H4.94595V104.936H666.054V103.288Z" fill="url(#paint24_linear_7_336)" fill-opacity="0.1"/>
<path d="M666.054 136.343H4.94595V137.992H666.054V136.343Z" fill="url(#paint25_linear_7_336)" fill-opacity="0.1"/>
<path d="M666.054 169.399H4.94595V171.047H666.054V169.399Z" fill="url(#paint26_linear_7_336)" fill-opacity="0.1"/>
<path d="M666.054 202.454H4.94595V204.103H666.054V202.454Z" fill="url(#paint27_linear_7_336)" fill-opacity="0.1"/>
<path d="M666.054 235.509H4.94595V237.158H666.054V235.509Z" fill="url(#paint28_linear_7_336)" fill-opacity="0.1"/>
<path d="M666.054 268.565H4.94595V270.214H666.054V268.565Z" fill="url(#paint29_linear_7_336)" fill-opacity="0.1"/>
<path d="M666.054 301.62H4.94595V303.269H666.054V301.62Z" fill="url(#paint30_linear_7_336)" fill-opacity="0.1"/>
<path d="M666.054 334.676H4.94595V336.324H666.054V334.676Z" fill="url(#paint31_linear_7_336)" fill-opacity="0.1"/>
<path d="M666.054 367.731H4.94595V369.38H666.054V367.731Z" fill="url(#paint32_linear_7_336)" fill-opacity="0.1"/>
<path d="M666.054 400.786H4.94595V402.435H666.054V400.786Z" fill="url(#paint33_linear_7_336)" fill-opacity="0.1"/>
<path d="M666.054 433.842H4.94595V435.491H666.054V433.842Z" fill="url(#paint34_linear_7_336)" fill-opacity="0.1"/>
<path d="M666.054 466.897H4.94595V468.546H666.054V466.897Z" fill="url(#paint35_linear_7_336)" fill-opacity="0.1"/>
<path d="M666.054 499.953H4.94595V501.601H666.054V499.953Z" fill="url(#paint36_linear_7_336)" fill-opacity="0.1"/>
<path d="M666.054 533.008H4.94595V534.657H666.054V533.008Z" fill="url(#paint37_linear_7_336)" fill-opacity="0.1"/>
<path d="M666.054 566.064H4.94595V567.712H666.054V566.064Z" fill="url(#paint38_linear_7_336)" fill-opacity="0.1"/>
<path d="M666.054 599.119H4.94595V600.768H666.054V599.119Z" fill="url(#paint39_linear_7_336)" fill-opacity="0.1"/>
<path d="M666.054 632.174H4.94595V633.823H666.054V632.174Z" fill="url(#paint40_linear_7_336)" fill-opacity="0.1"/>
<path d="M665.23 664.405H5.77027V666.054H665.23V664.405Z" fill="url(#paint41_linear_7_336)" fill-opacity="0.1"/>
<path d="M6.59459 0H4.94595V11.5405H6.59459V0Z" fill="url(#paint42_linear_7_336)" fill-opacity="0.1"/>
<path d="M11.5405 4.94595H0V6.59459H11.5405V4.94595Z" fill="url(#paint43_linear_7_336)" fill-opacity="0.1"/>
<path d="M666.054 0H664.405V11.5405H666.054V0Z" fill="url(#paint44_linear_7_336)" fill-opacity="0.1"/>
<path d="M671 4.94595H659.459V6.59459H671V4.94595Z" fill="url(#paint45_linear_7_336)" fill-opacity="0.1"/>
<path d="M6.59459 164.865H4.94595V176.405H6.59459V164.865Z" fill="url(#paint46_linear_7_336)" fill-opacity="0.1"/>
<path d="M11.5405 169.811H0V171.459H11.5405V169.811Z" fill="url(#paint47_linear_7_336)" fill-opacity="0.1"/>
<path d="M666.054 164.865H664.405V176.405H666.054V164.865Z" fill="url(#paint48_linear_7_336)" fill-opacity="0.1"/>
<path d="M671 169.811H659.459V171.459H671V169.811Z" fill="url(#paint49_linear_7_336)" fill-opacity="0.1"/>
<path d="M6.59459 329.73H4.94595V341.27H6.59459V329.73Z" fill="url(#paint50_linear_7_336)" fill-opacity="0.1"/>
<path d="M11.5405 334.676H0V336.324H11.5405V334.676Z" fill="url(#paint51_linear_7_336)" fill-opacity="0.1"/>
<path d="M666.054 329.73H664.405V341.27H666.054V329.73Z" fill="url(#paint52_linear_7_336)" fill-opacity="0.1"/>
<path d="M671 334.676H659.459V336.324H671V334.676Z" fill="url(#paint53_linear_7_336)" fill-opacity="0.1"/>
<path d="M6.59459 494.595H4.94595V506.135H6.59459V494.595Z" fill="url(#paint54_linear_7_336)" fill-opacity="0.1"/>
<path d="M11.5405 499.541H0V501.189H11.5405V499.541Z" fill="url(#paint55_linear_7_336)" fill-opacity="0.1"/>
<path d="M666.054 494.595H664.405V506.135H666.054V494.595Z" fill="url(#paint56_linear_7_336)" fill-opacity="0.1"/>
<path d="M671 499.541H659.459V501.189H671V499.541Z" fill="url(#paint57_linear_7_336)" fill-opacity="0.1"/>
<path d="M6.59459 659.459H4.94595V671H6.59459V659.459Z" fill="url(#paint58_linear_7_336)" fill-opacity="0.1"/>
<path d="M11.5405 664.405H0V666.054H11.5405V664.405Z" fill="url(#paint59_linear_7_336)" fill-opacity="0.1"/>
<path d="M171.459 0H169.811V11.5405H171.459V0Z" fill="url(#paint60_linear_7_336)" fill-opacity="0.1"/>
<path d="M176.405 4.94595H164.865V6.59459H176.405V4.94595Z" fill="url(#paint61_linear_7_336)" fill-opacity="0.1"/>
<path d="M171.459 164.865H169.811V176.405H171.459V164.865Z" fill="url(#paint62_linear_7_336)" fill-opacity="0.1"/>
<path d="M176.405 169.811H164.865V171.459H176.405V169.811Z" fill="url(#paint63_linear_7_336)" fill-opacity="0.1"/>
<path d="M171.459 329.73H169.811V341.27H171.459V329.73Z" fill="url(#paint64_linear_7_336)" fill-opacity="0.1"/>
<path d="M176.405 334.676H164.865V336.324H176.405V334.676Z" fill="url(#paint65_linear_7_336)" fill-opacity="0.1"/>
<path d="M171.459 494.595H169.811V506.135H171.459V494.595Z" fill="url(#paint66_linear_7_336)" fill-opacity="0.1"/>
<path d="M176.405 499.541H164.865V501.189H176.405V499.541Z" fill="url(#paint67_linear_7_336)" fill-opacity="0.1"/>
<path d="M171.459 659.459H169.811V671H171.459V659.459Z" fill="url(#paint68_linear_7_336)" fill-opacity="0.1"/>
<path d="M176.405 664.405H164.865V666.054H176.405V664.405Z" fill="url(#paint69_linear_7_336)" fill-opacity="0.1"/>
<path d="M336.324 0H334.676V11.5405H336.324V0Z" fill="url(#paint70_linear_7_336)" fill-opacity="0.1"/>
<path d="M341.27 4.94595H329.73V6.59459H341.27V4.94595Z" fill="url(#paint71_linear_7_336)" fill-opacity="0.1"/>
<path d="M336.324 164.865H334.676V176.405H336.324V164.865Z" fill="url(#paint72_linear_7_336)" fill-opacity="0.1"/>
<path d="M341.27 169.811H329.73V171.459H341.27V169.811Z" fill="url(#paint73_linear_7_336)" fill-opacity="0.1"/>
<path d="M336.324 329.73H334.676V341.27H336.324V329.73Z" fill="url(#paint74_linear_7_336)" fill-opacity="0.1"/>
<path d="M341.27 334.676H329.73V336.324H341.27V334.676Z" fill="url(#paint75_linear_7_336)" fill-opacity="0.1"/>
<path d="M336.324 494.595H334.676V506.135H336.324V494.595Z" fill="url(#paint76_linear_7_336)" fill-opacity="0.1"/>
<path d="M341.27 499.541H329.73V501.189H341.27V499.541Z" fill="url(#paint77_linear_7_336)" fill-opacity="0.1"/>
<path d="M336.324 659.459H334.676V671H336.324V659.459Z" fill="url(#paint78_linear_7_336)" fill-opacity="0.1"/>
<path d="M341.27 664.405H329.73V666.054H341.27V664.405Z" fill="url(#paint79_linear_7_336)" fill-opacity="0.1"/>
<path d="M501.189 0H499.541V11.5405H501.189V0Z" fill="url(#paint80_linear_7_336)" fill-opacity="0.1"/>
<path d="M506.135 4.94595H494.595V6.59459H506.135V4.94595Z" fill="url(#paint81_linear_7_336)" fill-opacity="0.1"/>
<path d="M501.189 164.865H499.541V176.405H501.189V164.865Z" fill="url(#paint82_linear_7_336)" fill-opacity="0.1"/>
<path d="M506.135 169.811H494.595V171.459H506.135V169.811Z" fill="url(#paint83_linear_7_336)" fill-opacity="0.1"/>
<path d="M501.189 329.73H499.541V341.27H501.189V329.73Z" fill="url(#paint84_linear_7_336)" fill-opacity="0.1"/>
<path d="M506.135 334.676H494.595V336.324H506.135V334.676Z" fill="url(#paint85_linear_7_336)" fill-opacity="0.1"/>
<path d="M501.189 494.595H499.541V506.135H501.189V494.595Z" fill="url(#paint86_linear_7_336)" fill-opacity="0.1"/>
<path d="M506.135 499.541H494.595V501.189H506.135V499.541Z" fill="url(#paint87_linear_7_336)" fill-opacity="0.1"/>
<path d="M501.189 659.459H499.541V671H501.189V659.459Z" fill="url(#paint88_linear_7_336)" fill-opacity="0.1"/>
<path d="M506.135 664.405H494.595V666.054H506.135V664.405Z" fill="url(#paint89_linear_7_336)" fill-opacity="0.1"/>
<path d="M666.054 659.459H664.405V671H666.054V659.459Z" fill="url(#paint90_linear_7_336)" fill-opacity="0.1"/>
<path d="M671 664.405H659.459V666.054H671V664.405Z" fill="url(#paint91_linear_7_336)" fill-opacity="0.1"/>
<path d="M89.027 87.3784H87.3784V89.027H89.027V87.3784Z" fill="url(#paint92_linear_7_336)" fill-opacity="0.1"/>
<path d="M253.892 87.3784H252.243V89.027H253.892V87.3784Z" fill="url(#paint93_linear_7_336)" fill-opacity="0.1"/>
<path d="M418.757 87.3784H417.108V89.027H418.757V87.3784Z" fill="url(#paint94_linear_7_336)" fill-opacity="0.1"/>
<path d="M583.622 87.3784H581.973V89.027H583.622V87.3784Z" fill="url(#paint95_linear_7_336)" fill-opacity="0.1"/>
<path d="M89.027 252.243H87.3784V253.892H89.027V252.243Z" fill="url(#paint96_linear_7_336)" fill-opacity="0.1"/>
<path d="M253.892 252.243H252.243V253.892H253.892V252.243Z" fill="url(#paint97_linear_7_336)" fill-opacity="0.1"/>
<path d="M418.757 252.243H417.108V253.892H418.757V252.243Z" fill="url(#paint98_linear_7_336)" fill-opacity="0.1"/>
<path d="M583.622 252.243H581.973V253.892H583.622V252.243Z" fill="url(#paint99_linear_7_336)" fill-opacity="0.1"/>
<path d="M89.027 417.108H87.3784V418.757H89.027V417.108Z" fill="url(#paint100_linear_7_336)" fill-opacity="0.1"/>
<path d="M253.892 417.108H252.243V418.757H253.892V417.108Z" fill="url(#paint101_linear_7_336)" fill-opacity="0.1"/>
<path d="M418.757 417.108H417.108V418.757H418.757V417.108Z" fill="url(#paint102_linear_7_336)" fill-opacity="0.1"/>
<path d="M583.622 417.108H581.973V418.757H583.622V417.108Z" fill="url(#paint103_linear_7_336)" fill-opacity="0.1"/>
<path d="M89.027 581.973H87.3784V583.622H89.027V581.973Z" fill="url(#paint104_linear_7_336)" fill-opacity="0.1"/>
<path d="M253.892 581.973H252.243V583.622H253.892V581.973Z" fill="url(#paint105_linear_7_336)" fill-opacity="0.1"/>
<path d="M418.757 581.973H417.108V583.622H418.757V581.973Z" fill="url(#paint106_linear_7_336)" fill-opacity="0.1"/>
<path d="M583.622 581.973H581.973V583.622H583.622V581.973Z" fill="url(#paint107_linear_7_336)" fill-opacity="0.1"/>
<defs>
<linearGradient id="paint0_linear_7_336" x1="335.5" y1="0" x2="335.5" y2="671" gradientUnits="userSpaceOnUse">
<stop stop-color="white"/>
<stop offset="1" stop-color="white" stop-opacity="0"/>
</linearGradient>
<linearGradient id="paint1_linear_7_336" x1="335.5" y1="0" x2="335.5" y2="671" gradientUnits="userSpaceOnUse">
<stop stop-color="white"/>
<stop offset="1" stop-color="white" stop-opacity="0"/>
</linearGradient>
<linearGradient id="paint2_linear_7_336" x1="335.5" y1="0" x2="335.5" y2="671" gradientUnits="userSpaceOnUse">
<stop stop-color="white"/>
<stop offset="1" stop-color="white" stop-opacity="0"/>
</linearGradient>
<linearGradient id="paint3_linear_7_336" x1="335.5" y1="0" x2="335.5" y2="671" gradientUnits="userSpaceOnUse">
<stop stop-color="white"/>
<stop offset="1" stop-color="white" stop-opacity="0"/>
</linearGradient>
<linearGradient id="paint4_linear_7_336" x1="335.5" y1="0" x2="335.5" y2="671" gradientUnits="userSpaceOnUse">
<stop stop-color="white"/>
<stop offset="1" stop-color="white" stop-opacity="0"/>
</linearGradient>
<linearGradient id="paint5_linear_7_336" x1="335.5" y1="0" x2="335.5" y2="671" gradientUnits="userSpaceOnUse">
<stop stop-color="white"/>
<stop offset="1" stop-color="white" stop-opacity="0"/>
</linearGradient>
<linearGradient id="paint6_linear_7_336" x1="335.5" y1="0" x2="335.5" y2="671" gradientUnits="userSpaceOnUse">
<stop stop-color="white"/>
<stop offset="1" stop-color="white" stop-opacity="0"/>
</linearGradient>
<linearGradient id="paint7_linear_7_336" x1="335.5" y1="0" x2="335.5" y2="671" gradientUnits="userSpaceOnUse">
<stop stop-color="white"/>
<stop offset="1" stop-color="white" stop-opacity="0"/>
</linearGradient>
<linearGradient id="paint8_linear_7_336" x1="335.5" y1="0" x2="335.5" y2="671" gradientUnits="userSpaceOnUse">
<stop stop-color="white"/>
<stop offset="1" stop-color="white" stop-opacity="0"/>
</linearGradient>
<linearGradient id="paint9_linear_7_336" x1="335.5" y1="0" x2="335.5" y2="671" gradientUnits="userSpaceOnUse">
<stop stop-color="white"/>
<stop offset="1" stop-color="white" stop-opacity="0"/>
</linearGradient>
<linearGradient id="paint10_linear_7_336" x1="335.5" y1="0" x2="335.5" y2="671" gradientUnits="userSpaceOnUse">
<stop stop-color="white"/>
<stop offset="1" stop-color="white" stop-opacity="0"/>
</linearGradient>
<linearGradient id="paint11_linear_7_336" x1="335.5" y1="0" x2="335.5" y2="671" gradientUnits="userSpaceOnUse">
<stop stop-color="white"/>
<stop offset="1" stop-color="white" stop-opacity="0"/>
</linearGradient>
<linearGradient id="paint12_linear_7_336" x1="335.5" y1="0" x2="335.5" y2="671" gradientUnits="userSpaceOnUse">
<stop stop-color="white"/>
<stop offset="1" stop-color="white" stop-opacity="0"/>
</linearGradient>
<linearGradient id="paint13_linear_7_336" x1="335.5" y1="0" x2="335.5" y2="671" gradientUnits="userSpaceOnUse">
<stop stop-color="white"/>
<stop offset="1" stop-color="white" stop-opacity="0"/>
</linearGradient>
<linearGradient id="paint14_linear_7_336" x1="335.5" y1="0" x2="335.5" y2="671" gradientUnits="userSpaceOnUse">
<stop stop-color="white"/>
<stop offset="1" stop-color="white" stop-opacity="0"/>
</linearGradient>
<linearGradient id="paint15_linear_7_336" x1="335.5" y1="0" x2="335.5" y2="671" gradientUnits="userSpaceOnUse">
<stop stop-color="white"/>
<stop offset="1" stop-color="white" stop-opacity="0"/>
</linearGradient>
<linearGradient id="paint16_linear_7_336" x1="335.5" y1="0" x2="335.5" y2="671" gradientUnits="userSpaceOnUse">
<stop stop-color="white"/>
<stop offset="1" stop-color="white" stop-opacity="0"/>
</linearGradient>
<linearGradient id="paint17_linear_7_336" x1="335.5" y1="0" x2="335.5" y2="671" gradientUnits="userSpaceOnUse">
<stop stop-color="white"/>
<stop offset="1" stop-color="white" stop-opacity="0"/>
</linearGradient>
<linearGradient id="paint18_linear_7_336" x1="335.5" y1="0" x2="335.5" y2="671" gradientUnits="userSpaceOnUse">
<stop stop-color="white"/>
<stop offset="1" stop-color="white" stop-opacity="0"/>
</linearGradient>
<linearGradient id="paint19_linear_7_336" x1="335.5" y1="0" x2="335.5" y2="671" gradientUnits="userSpaceOnUse">
<stop stop-color="white"/>
<stop offset="1" stop-color="white" stop-opacity="0"/>
</linearGradient>
<linearGradient id="paint20_linear_7_336" x1="335.5" y1="0" x2="335.5" y2="671" gradientUnits="userSpaceOnUse">
<stop stop-color="white"/>
<stop offset="1" stop-color="white" stop-opacity="0"/>
</linearGradient>
<linearGradient id="paint21_linear_7_336" x1="335.5" y1="0" x2="335.5" y2="671" gradientUnits="userSpaceOnUse">
<stop stop-color="white"/>
<stop offset="1" stop-color="white" stop-opacity="0"/>
</linearGradient>
<linearGradient id="paint22_linear_7_336" x1="335.5" y1="0" x2="335.5" y2="671" gradientUnits="userSpaceOnUse">
<stop stop-color="white"/>
<stop offset="1" stop-color="white" stop-opacity="0"/>
</linearGradient>
<linearGradient id="paint23_linear_7_336" x1="335.5" y1="0" x2="335.5" y2="671" gradientUnits="userSpaceOnUse">
<stop stop-color="white"/>
<stop offset="1" stop-color="white" stop-opacity="0"/>
</linearGradient>
<linearGradient id="paint24_linear_7_336" x1="335.5" y1="0" x2="335.5" y2="671" gradientUnits="userSpaceOnUse">
<stop stop-color="white"/>
<stop offset="1" stop-color="white" stop-opacity="0"/>
</linearGradient>
<linearGradient id="paint25_linear_7_336" x1="335.5" y1="0" x2="335.5" y2="671" gradientUnits="userSpaceOnUse">
<stop stop-color="white"/>
<stop offset="1" stop-color="white" stop-opacity="0"/>
</linearGradient>
<linearGradient id="paint26_linear_7_336" x1="335.5" y1="0" x2="335.5" y2="671" gradientUnits="userSpaceOnUse">
<stop stop-color="white"/>
<stop offset="1" stop-color="white" stop-opacity="0"/>
</linearGradient>
<linearGradient id="paint27_linear_7_336" x1="335.5" y1="0" x2="335.5" y2="671" gradientUnits="userSpaceOnUse">
<stop stop-color="white"/>
<stop offset="1" stop-color="white" stop-opacity="0"/>
</linearGradient>
<linearGradient id="paint28_linear_7_336" x1="335.5" y1="0" x2="335.5" y2="671" gradientUnits="userSpaceOnUse">
<stop stop-color="white"/>
<stop offset="1" stop-color="white" stop-opacity="0"/>
</linearGradient>
<linearGradient id="paint29_linear_7_336" x1="335.5" y1="0" x2="335.5" y2="671" gradientUnits="userSpaceOnUse">
<stop stop-color="white"/>
<stop offset="1" stop-color="white" stop-opacity="0"/>
</linearGradient>
<linearGradient id="paint30_linear_7_336" x1="335.5" y1="0" x2="335.5" y2="671" gradientUnits="userSpaceOnUse">
<stop stop-color="white"/>
<stop offset="1" stop-color="white" stop-opacity="0"/>
</linearGradient>
<linearGradient id="paint31_linear_7_336" x1="335.5" y1="0" x2="335.5" y2="671" gradientUnits="userSpaceOnUse">
<stop stop-color="white"/>
<stop offset="1" stop-color="white" stop-opacity="0"/>
</linearGradient>
<linearGradient id="paint32_linear_7_336" x1="335.5" y1="0" x2="335.5" y2="671" gradientUnits="userSpaceOnUse">
<stop stop-color="white"/>
<stop offset="1" stop-color="white" stop-opacity="0"/>
</linearGradient>
<linearGradient id="paint33_linear_7_336" x1="335.5" y1="0" x2="335.5" y2="671" gradientUnits="userSpaceOnUse">
<stop stop-color="white"/>
<stop offset="1" stop-color="white" stop-opacity="0"/>
</linearGradient>
<linearGradient id="paint34_linear_7_336" x1="335.5" y1="0" x2="335.5" y2="671" gradientUnits="userSpaceOnUse">
<stop stop-color="white"/>
<stop offset="1" stop-color="white" stop-opacity="0"/>
</linearGradient>
<linearGradient id="paint35_linear_7_336" x1="335.5" y1="0" x2="335.5" y2="671" gradientUnits="userSpaceOnUse">
<stop stop-color="white"/>
<stop offset="1" stop-color="white" stop-opacity="0"/>
</linearGradient>
<linearGradient id="paint36_linear_7_336" x1="335.5" y1="0" x2="335.5" y2="671" gradientUnits="userSpaceOnUse">
<stop stop-color="white"/>
<stop offset="1" stop-color="white" stop-opacity="0"/>
</linearGradient>
<linearGradient id="paint37_linear_7_336" x1="335.5" y1="0" x2="335.5" y2="671" gradientUnits="userSpaceOnUse">
<stop stop-color="white"/>
<stop offset="1" stop-color="white" stop-opacity="0"/>
</linearGradient>
<linearGradient id="paint38_linear_7_336" x1="335.5" y1="0" x2="335.5" y2="671" gradientUnits="userSpaceOnUse">
<stop stop-color="white"/>
<stop offset="1" stop-color="white" stop-opacity="0"/>
</linearGradient>
<linearGradient id="paint39_linear_7_336" x1="335.5" y1="0" x2="335.5" y2="671" gradientUnits="userSpaceOnUse">
<stop stop-color="white"/>
<stop offset="1" stop-color="white" stop-opacity="0"/>
</linearGradient>
<linearGradient id="paint40_linear_7_336" x1="335.5" y1="0" x2="335.5" y2="671" gradientUnits="userSpaceOnUse">
<stop stop-color="white"/>
<stop offset="1" stop-color="white" stop-opacity="0"/>
</linearGradient>
<linearGradient id="paint41_linear_7_336" x1="335.5" y1="0" x2="335.5" y2="671" gradientUnits="userSpaceOnUse">
<stop stop-color="white"/>
<stop offset="1" stop-color="white" stop-opacity="0"/>
</linearGradient>
<linearGradient id="paint42_linear_7_336" x1="335.5" y1="0" x2="335.5" y2="671" gradientUnits="userSpaceOnUse">
<stop stop-color="white"/>
<stop offset="1" stop-color="white" stop-opacity="0"/>
</linearGradient>
<linearGradient id="paint43_linear_7_336" x1="335.5" y1="0" x2="335.5" y2="671" gradientUnits="userSpaceOnUse">
<stop stop-color="white"/>
<stop offset="1" stop-color="white" stop-opacity="0"/>
</linearGradient>
<linearGradient id="paint44_linear_7_336" x1="335.5" y1="0" x2="335.5" y2="671" gradientUnits="userSpaceOnUse">
<stop stop-color="white"/>
<stop offset="1" stop-color="white" stop-opacity="0"/>
</linearGradient>
<linearGradient id="paint45_linear_7_336" x1="335.5" y1="0" x2="335.5" y2="671" gradientUnits="userSpaceOnUse">
<stop stop-color="white"/>
<stop offset="1" stop-color="white" stop-opacity="0"/>
</linearGradient>
<linearGradient id="paint46_linear_7_336" x1="335.5" y1="0" x2="335.5" y2="671" gradientUnits="userSpaceOnUse">
<stop stop-color="white"/>
<stop offset="1" stop-color="white" stop-opacity="0"/>
</linearGradient>
<linearGradient id="paint47_linear_7_336" x1="335.5" y1="0" x2="335.5" y2="671" gradientUnits="userSpaceOnUse">
<stop stop-color="white"/>
<stop offset="1" stop-color="white" stop-opacity="0"/>
</linearGradient>
<linearGradient id="paint48_linear_7_336" x1="335.5" y1="0" x2="335.5" y2="671" gradientUnits="userSpaceOnUse">
<stop stop-color="white"/>
<stop offset="1" stop-color="white" stop-opacity="0"/>
</linearGradient>
<linearGradient id="paint49_linear_7_336" x1="335.5" y1="0" x2="335.5" y2="671" gradientUnits="userSpaceOnUse">
<stop stop-color="white"/>
<stop offset="1" stop-color="white" stop-opacity="0"/>
</linearGradient>
<linearGradient id="paint50_linear_7_336" x1="335.5" y1="0" x2="335.5" y2="671" gradientUnits="userSpaceOnUse">
<stop stop-color="white"/>
<stop offset="1" stop-color="white" stop-opacity="0"/>
</linearGradient>
<linearGradient id="paint51_linear_7_336" x1="335.5" y1="0" x2="335.5" y2="671" gradientUnits="userSpaceOnUse">
<stop stop-color="white"/>
<stop offset="1" stop-color="white" stop-opacity="0"/>
</linearGradient>
<linearGradient id="paint52_linear_7_336" x1="335.5" y1="0" x2="335.5" y2="671" gradientUnits="userSpaceOnUse">
<stop stop-color="white"/>
<stop offset="1" stop-color="white" stop-opacity="0"/>
</linearGradient>
<linearGradient id="paint53_linear_7_336" x1="335.5" y1="0" x2="335.5" y2="671" gradientUnits="userSpaceOnUse">
<stop stop-color="white"/>
<stop offset="1" stop-color="white" stop-opacity="0"/>
</linearGradient>
<linearGradient id="paint54_linear_7_336" x1="335.5" y1="0" x2="335.5" y2="671" gradientUnits="userSpaceOnUse">
<stop stop-color="white"/>
<stop offset="1" stop-color="white" stop-opacity="0"/>
</linearGradient>
<linearGradient id="paint55_linear_7_336" x1="335.5" y1="0" x2="335.5" y2="671" gradientUnits="userSpaceOnUse">
<stop stop-color="white"/>
<stop offset="1" stop-color="white" stop-opacity="0"/>
</linearGradient>
<linearGradient id="paint56_linear_7_336" x1="335.5" y1="0" x2="335.5" y2="671" gradientUnits="userSpaceOnUse">
<stop stop-color="white"/>
<stop offset="1" stop-color="white" stop-opacity="0"/>
</linearGradient>
<linearGradient id="paint57_linear_7_336" x1="335.5" y1="0" x2="335.5" y2="671" gradientUnits="userSpaceOnUse">
<stop stop-color="white"/>
<stop offset="1" stop-color="white" stop-opacity="0"/>
</linearGradient>
<linearGradient id="paint58_linear_7_336" x1="335.5" y1="0" x2="335.5" y2="671" gradientUnits="userSpaceOnUse">
<stop stop-color="white"/>
<stop offset="1" stop-color="white" stop-opacity="0"/>
</linearGradient>
<linearGradient id="paint59_linear_7_336" x1="335.5" y1="0" x2="335.5" y2="671" gradientUnits="userSpaceOnUse">
<stop stop-color="white"/>
<stop offset="1" stop-color="white" stop-opacity="0"/>
</linearGradient>
<linearGradient id="paint60_linear_7_336" x1="335.5" y1="0" x2="335.5" y2="671" gradientUnits="userSpaceOnUse">
<stop stop-color="white"/>
<stop offset="1" stop-color="white" stop-opacity="0"/>
</linearGradient>
<linearGradient id="paint61_linear_7_336" x1="335.5" y1="0" x2="335.5" y2="671" gradientUnits="userSpaceOnUse">
<stop stop-color="white"/>
<stop offset="1" stop-color="white" stop-opacity="0"/>
</linearGradient>
<linearGradient id="paint62_linear_7_336" x1="335.5" y1="0" x2="335.5" y2="671" gradientUnits="userSpaceOnUse">
<stop stop-color="white"/>
<stop offset="1" stop-color="white" stop-opacity="0"/>
</linearGradient>
<linearGradient id="paint63_linear_7_336" x1="335.5" y1="0" x2="335.5" y2="671" gradientUnits="userSpaceOnUse">
<stop stop-color="white"/>
<stop offset="1" stop-color="white" stop-opacity="0"/>
</linearGradient>
<linearGradient id="paint64_linear_7_336" x1="335.5" y1="0" x2="335.5" y2="671" gradientUnits="userSpaceOnUse">
<stop stop-color="white"/>
<stop offset="1" stop-color="white" stop-opacity="0"/>
</linearGradient>
<linearGradient id="paint65_linear_7_336" x1="335.5" y1="0" x2="335.5" y2="671" gradientUnits="userSpaceOnUse">
<stop stop-color="white"/>
<stop offset="1" stop-color="white" stop-opacity="0"/>
</linearGradient>
<linearGradient id="paint66_linear_7_336" x1="335.5" y1="0" x2="335.5" y2="671" gradientUnits="userSpaceOnUse">
<stop stop-color="white"/>
<stop offset="1" stop-color="white" stop-opacity="0"/>
</linearGradient>
<linearGradient id="paint67_linear_7_336" x1="335.5" y1="0" x2="335.5" y2="671" gradientUnits="userSpaceOnUse">
<stop stop-color="white"/>
<stop offset="1" stop-color="white" stop-opacity="0"/>
</linearGradient>
<linearGradient id="paint68_linear_7_336" x1="335.5" y1="0" x2="335.5" y2="671" gradientUnits="userSpaceOnUse">
<stop stop-color="white"/>
<stop offset="1" stop-color="white" stop-opacity="0"/>
</linearGradient>
<linearGradient id="paint69_linear_7_336" x1="335.5" y1="0" x2="335.5" y2="671" gradientUnits="userSpaceOnUse">
<stop stop-color="white"/>
<stop offset="1" stop-color="white" stop-opacity="0"/>
</linearGradient>
<linearGradient id="paint70_linear_7_336" x1="335.5" y1="0" x2="335.5" y2="671" gradientUnits="userSpaceOnUse">
<stop stop-color="white"/>
<stop offset="1" stop-color="white" stop-opacity="0"/>
</linearGradient>
<linearGradient id="paint71_linear_7_336" x1="335.5" y1="0" x2="335.5" y2="671" gradientUnits="userSpaceOnUse">
<stop stop-color="white"/>
<stop offset="1" stop-color="white" stop-opacity="0"/>
</linearGradient>
<linearGradient id="paint72_linear_7_336" x1="335.5" y1="0" x2="335.5" y2="671" gradientUnits="userSpaceOnUse">
<stop stop-color="white"/>
<stop offset="1" stop-color="white" stop-opacity="0"/>
</linearGradient>
<linearGradient id="paint73_linear_7_336" x1="335.5" y1="0" x2="335.5" y2="671" gradientUnits="userSpaceOnUse">
<stop stop-color="white"/>
<stop offset="1" stop-color="white" stop-opacity="0"/>
</linearGradient>
<linearGradient id="paint74_linear_7_336" x1="335.5" y1="0" x2="335.5" y2="671" gradientUnits="userSpaceOnUse">
<stop stop-color="white"/>
<stop offset="1" stop-color="white" stop-opacity="0"/>
</linearGradient>
<linearGradient id="paint75_linear_7_336" x1="335.5" y1="0" x2="335.5" y2="671" gradientUnits="userSpaceOnUse">
<stop stop-color="white"/>
<stop offset="1" stop-color="white" stop-opacity="0"/>
</linearGradient>
<linearGradient id="paint76_linear_7_336" x1="335.5" y1="0" x2="335.5" y2="671" gradientUnits="userSpaceOnUse">
<stop stop-color="white"/>
<stop offset="1" stop-color="white" stop-opacity="0"/>
</linearGradient>
<linearGradient id="paint77_linear_7_336" x1="335.5" y1="0" x2="335.5" y2="671" gradientUnits="userSpaceOnUse">
<stop stop-color="white"/>
<stop offset="1" stop-color="white" stop-opacity="0"/>
</linearGradient>
<linearGradient id="paint78_linear_7_336" x1="335.5" y1="0" x2="335.5" y2="671" gradientUnits="userSpaceOnUse">
<stop stop-color="white"/>
<stop offset="1" stop-color="white" stop-opacity="0"/>
</linearGradient>
<linearGradient id="paint79_linear_7_336" x1="335.5" y1="0" x2="335.5" y2="671" gradientUnits="userSpaceOnUse">
<stop stop-color="white"/>
<stop offset="1" stop-color="white" stop-opacity="0"/>
</linearGradient>
<linearGradient id="paint80_linear_7_336" x1="335.5" y1="0" x2="335.5" y2="671" gradientUnits="userSpaceOnUse">
<stop stop-color="white"/>
<stop offset="1" stop-color="white" stop-opacity="0"/>
</linearGradient>
<linearGradient id="paint81_linear_7_336" x1="335.5" y1="0" x2="335.5" y2="671" gradientUnits="userSpaceOnUse">
<stop stop-color="white"/>
<stop offset="1" stop-color="white" stop-opacity="0"/>
</linearGradient>
<linearGradient id="paint82_linear_7_336" x1="335.5" y1="0" x2="335.5" y2="671" gradientUnits="userSpaceOnUse">
<stop stop-color="white"/>
<stop offset="1" stop-color="white" stop-opacity="0"/>
</linearGradient>
<linearGradient id="paint83_linear_7_336" x1="335.5" y1="0" x2="335.5" y2="671" gradientUnits="userSpaceOnUse">
<stop stop-color="white"/>
<stop offset="1" stop-color="white" stop-opacity="0"/>
</linearGradient>
<linearGradient id="paint84_linear_7_336" x1="335.5" y1="0" x2="335.5" y2="671" gradientUnits="userSpaceOnUse">
<stop stop-color="white"/>
<stop offset="1" stop-color="white" stop-opacity="0"/>
</linearGradient>
<linearGradient id="paint85_linear_7_336" x1="335.5" y1="0" x2="335.5" y2="671" gradientUnits="userSpaceOnUse">
<stop stop-color="white"/>
<stop offset="1" stop-color="white" stop-opacity="0"/>
</linearGradient>
<linearGradient id="paint86_linear_7_336" x1="335.5" y1="0" x2="335.5" y2="671" gradientUnits="userSpaceOnUse">
<stop stop-color="white"/>
<stop offset="1" stop-color="white" stop-opacity="0"/>
</linearGradient>
<linearGradient id="paint87_linear_7_336" x1="335.5" y1="0" x2="335.5" y2="671" gradientUnits="userSpaceOnUse">
<stop stop-color="white"/>
<stop offset="1" stop-color="white" stop-opacity="0"/>
</linearGradient>
<linearGradient id="paint88_linear_7_336" x1="335.5" y1="0" x2="335.5" y2="671" gradientUnits="userSpaceOnUse">
<stop stop-color="white"/>
<stop offset="1" stop-color="white" stop-opacity="0"/>
</linearGradient>
<linearGradient id="paint89_linear_7_336" x1="335.5" y1="0" x2="335.5" y2="671" gradientUnits="userSpaceOnUse">
<stop stop-color="white"/>
<stop offset="1" stop-color="white" stop-opacity="0"/>
</linearGradient>
<linearGradient id="paint90_linear_7_336" x1="335.5" y1="0" x2="335.5" y2="671" gradientUnits="userSpaceOnUse">
<stop stop-color="white"/>
<stop offset="1" stop-color="white" stop-opacity="0"/>
</linearGradient>
<linearGradient id="paint91_linear_7_336" x1="335.5" y1="0" x2="335.5" y2="671" gradientUnits="userSpaceOnUse">
<stop stop-color="white"/>
<stop offset="1" stop-color="white" stop-opacity="0"/>
</linearGradient>
<linearGradient id="paint92_linear_7_336" x1="335.5" y1="0" x2="335.5" y2="671" gradientUnits="userSpaceOnUse">
<stop stop-color="white"/>
<stop offset="1" stop-color="white" stop-opacity="0"/>
</linearGradient>
<linearGradient id="paint93_linear_7_336" x1="335.5" y1="0" x2="335.5" y2="671" gradientUnits="userSpaceOnUse">
<stop stop-color="white"/>
<stop offset="1" stop-color="white" stop-opacity="0"/>
</linearGradient>
<linearGradient id="paint94_linear_7_336" x1="335.5" y1="0" x2="335.5" y2="671" gradientUnits="userSpaceOnUse">
<stop stop-color="white"/>
<stop offset="1" stop-color="white" stop-opacity="0"/>
</linearGradient>
<linearGradient id="paint95_linear_7_336" x1="335.5" y1="0" x2="335.5" y2="671" gradientUnits="userSpaceOnUse">
<stop stop-color="white"/>
<stop offset="1" stop-color="white" stop-opacity="0"/>
</linearGradient>
<linearGradient id="paint96_linear_7_336" x1="335.5" y1="0" x2="335.5" y2="671" gradientUnits="userSpaceOnUse">
<stop stop-color="white"/>
<stop offset="1" stop-color="white" stop-opacity="0"/>
</linearGradient>
<linearGradient id="paint97_linear_7_336" x1="335.5" y1="0" x2="335.5" y2="671" gradientUnits="userSpaceOnUse">
<stop stop-color="white"/>
<stop offset="1" stop-color="white" stop-opacity="0"/>
</linearGradient>
<linearGradient id="paint98_linear_7_336" x1="335.5" y1="0" x2="335.5" y2="671" gradientUnits="userSpaceOnUse">
<stop stop-color="white"/>
<stop offset="1" stop-color="white" stop-opacity="0"/>
</linearGradient>
<linearGradient id="paint99_linear_7_336" x1="335.5" y1="0" x2="335.5" y2="671" gradientUnits="userSpaceOnUse">
<stop stop-color="white"/>
<stop offset="1" stop-color="white" stop-opacity="0"/>
</linearGradient>
<linearGradient id="paint100_linear_7_336" x1="335.5" y1="0" x2="335.5" y2="671" gradientUnits="userSpaceOnUse">
<stop stop-color="white"/>
<stop offset="1" stop-color="white" stop-opacity="0"/>
</linearGradient>
<linearGradient id="paint101_linear_7_336" x1="335.5" y1="0" x2="335.5" y2="671" gradientUnits="userSpaceOnUse">
<stop stop-color="white"/>
<stop offset="1" stop-color="white" stop-opacity="0"/>
</linearGradient>
<linearGradient id="paint102_linear_7_336" x1="335.5" y1="0" x2="335.5" y2="671" gradientUnits="userSpaceOnUse">
<stop stop-color="white"/>
<stop offset="1" stop-color="white" stop-opacity="0"/>
</linearGradient>
<linearGradient id="paint103_linear_7_336" x1="335.5" y1="0" x2="335.5" y2="671" gradientUnits="userSpaceOnUse">
<stop stop-color="white"/>
<stop offset="1" stop-color="white" stop-opacity="0"/>
</linearGradient>
<linearGradient id="paint104_linear_7_336" x1="335.5" y1="0" x2="335.5" y2="671" gradientUnits="userSpaceOnUse">
<stop stop-color="white"/>
<stop offset="1" stop-color="white" stop-opacity="0"/>
</linearGradient>
<linearGradient id="paint105_linear_7_336" x1="335.5" y1="0" x2="335.5" y2="671" gradientUnits="userSpaceOnUse">
<stop stop-color="white"/>
<stop offset="1" stop-color="white" stop-opacity="0"/>
</linearGradient>
<linearGradient id="paint106_linear_7_336" x1="335.5" y1="0" x2="335.5" y2="671" gradientUnits="userSpaceOnUse">
<stop stop-color="white"/>
<stop offset="1" stop-color="white" stop-opacity="0"/>
</linearGradient>
<linearGradient id="paint107_linear_7_336" x1="335.5" y1="0" x2="335.5" y2="671" gradientUnits="userSpaceOnUse">
<stop stop-color="white"/>
<stop offset="1" stop-color="white" stop-opacity="0"/>
</linearGradient>
</defs>
</svg>
