<?xml version="1.0" encoding="UTF-8"?>
<svg id="Camada_1" data-name="Camada 1" xmlns="http://www.w3.org/2000/svg" viewBox="0 0 2000 500.99">
  <defs>
    <style>
      .cls-1 {
        fill: #e52621;
      }

      .cls-1, .cls-2 {
        fill-rule: evenodd;
        stroke-width: 0px;
      }

      .cls-3 {
        font-family: QanelasSoftDEMO-UltraLight, 'Qanelas Soft DEMO';
        font-size: 132.87px;
        font-weight: 100;
      }

      .cls-4 {
        font-family: MalgunGothicBold, 'Malgun Gothic';
        font-size: 140.07px;
      }
    </style>
  </defs>
  <text class="cls-4" transform="translate(602.71 250.48) scale(1.19 1.37)"><tspan x="0" y="0">E</tspan></text>
  <text class="cls-4" transform="translate(765.11 250.48) scale(1.19 1.37)"><tspan x="0" y="0">Z</tspan></text>
  <text class="cls-4" transform="translate(939.64 250.48) scale(1.19 1.37)"><tspan x="0" y="0">A</tspan></text>
  <text class="cls-4" transform="translate(1129.55 250.48) scale(1.19 1.37)"><tspan x="0" y="0">N</tspan></text>
  <text class="cls-4" transform="translate(1335.15 250.48) scale(1.19 1.37)"><tspan x="0" y="0">N</tspan></text>
  <text class="cls-4" transform="translate(1540.75 250.48) scale(1.19 1.37)"><tspan x="0" y="0">I</tspan></text>
  <text class="cls-4" transform="translate(1665.09 250.48) scale(1.19 1.37)"><tspan x="0" y="0">N</tspan></text>
  <text class="cls-4" transform="translate(1870.68 250.48) scale(1.19 1.37)"><tspan x="0" y="0">O</tspan></text>
  <text class="cls-3" transform="translate(783.79 388.18) scale(1.19 1)"><tspan x="0" y="0">ENGENHARIA</tspan></text>
  <polygon class="cls-2" points="93.8 28.2 93.8 485.88 0 485.88 0 500.99 102.88 500.99 102.88 500.93 113.47 500.91 113.47 46.37 151.14 32.81 151.14 500.85 204.01 500.71 204.01 98.2 239.7 88.43 239.7 464.84 315.27 365.44 315.27 91.68 249.39 62.35 232.5 69.62 232.5 29.14 161.79 0 93.8 28.2"/>
  <polygon class="cls-1" points="550.53 448.65 657.09 448.65 657.09 499.67 531.99 499.67 434.98 500.76 434.98 221.82 328.06 358.71 328.06 198.33 428.25 72.07 550.53 72.07 550.53 448.65"/>
</svg>